<?xml version="1.0" encoding="utf-8"?>
<!-- Generator: Adobe Illustrator 19.0.0, SVG Export Plug-In . SVG Version: 6.00 Build 0)  -->
<svg version="1.1" id="Layer_1" xmlns="http://www.w3.org/2000/svg" xmlns:xlink="http://www.w3.org/1999/xlink" x="0px" y="0px"
	 viewBox="0 0 141.7 141.7" style="enable-background:new 0 0 141.7 141.7;" xml:space="preserve">
<style type="text/css">
	.st0{fill:#FFFFFF;}
</style>
<path id="XMLID_4_" class="st0" d="M68.9,56.1C68.9,56.1,68.9,56.1,68.9,56.1C68.9,56.1,68.9,56.1,68.9,56.1z M109.6,66.6L83.7,40.7
	c-2.2-2.2-5.9-2.2-8.1,0c-2.2,2.2-2.2,5.8,0,8.1l16.2,16.2l-54.9,0c-3.2,0-5.7,2.6-5.7,5.7s2.6,5.7,5.7,5.7l54.9,0L75.6,92.6
	c-2.2,2.2-2.2,5.9,0,8.1c1.1,1.1,2.6,1.7,4,1.7c1.5,0,2.9-0.6,4-1.7l25.9-25.9C111.8,72.5,111.8,68.8,109.6,66.6z M5.4,70.7
	c0-36.3,29.5-65.8,65.8-65.8c36.3,0,65.8,29.5,65.8,65.8c0,36.3-29.5,65.8-65.8,65.8S5.4,107,5.4,70.7z"/>
</svg>
