<?xml version="1.0" encoding="utf-8"?>
<!-- Generator: Adobe Illustrator 19.0.0, SVG Export Plug-In . SVG Version: 6.00 Build 0)  -->
<svg version="1.1" id="Layer_1" xmlns="http://www.w3.org/2000/svg" xmlns:xlink="http://www.w3.org/1999/xlink" x="0px" y="0px"
	 viewBox="0 0 132.8 132.8" style="enable-background:new 0 0 132.8 132.8;" xml:space="preserve">
<style type="text/css">
	.st0{fill:none;stroke:#8DBF21;stroke-width:7;stroke-miterlimit:10;}
	.st1{fill:#8DBF21;}
</style>
<circle id="XMLID_53_" class="st0" cx="67.2" cy="67.1" r="59.8"/>
<g>
	<path id="XMLID_68_" class="st1" d="M64.8,55.9C64.8,55.9,64.8,55.9,64.8,55.9C64.8,55.9,64.8,55.9,64.8,55.9z"/>
	<path id="XMLID_67_" class="st1" d="M96.3,64.1L76.2,44c-1.7-1.7-4.5-1.7-6.3,0c-1.7,1.7-1.7,4.5,0,6.3l12.5,12.5H40
		c-2.4,0-4.4,2-4.4,4.4c0,2.4,2,4.4,4.4,4.4h42.5L69.9,84.1c-1.7,1.7-1.7,4.5,0,6.3c0.9,0.9,2,1.3,3.1,1.3s2.3-0.4,3.1-1.3
		l20.1-20.1C98,68.6,98,65.8,96.3,64.1z"/>
</g>
</svg>
