<?xml version="1.0" encoding="utf-8"?>
<!-- Generator: Adobe Illustrator 19.0.0, SVG Export Plug-In . SVG Version: 6.00 Build 0)  -->
<svg version="1.1" id="Layer_1" xmlns="http://www.w3.org/2000/svg" xmlns:xlink="http://www.w3.org/1999/xlink" x="0px" y="0px"
	 viewBox="0 0 141.7 141.7" style="enable-background:new 0 0 141.7 141.7;" xml:space="preserve">
<style type="text/css">
	.st0{fill:#FFFFFF;}
</style>
<path id="XMLID_4_" class="st0" d="M73.5,85.2C73.5,85.2,73.5,85.2,73.5,85.2C73.5,85.2,73.5,85.2,73.5,85.2z M32.8,74.7l25.9,25.9
	c2.2,2.2,5.9,2.2,8.1,0c2.2-2.2,2.2-5.8,0-8.1L50.6,76.4h54.9c3.2,0,5.7-2.6,5.7-5.7s-2.6-5.7-5.7-5.7H50.6l16.2-16.2
	c2.2-2.2,2.2-5.9,0-8.1c-1.1-1.1-2.6-1.7-4-1.7c-1.5,0-2.9,0.6-4,1.7L32.8,66.6C30.6,68.8,30.6,72.5,32.8,74.7z M137,70.7
	c0,36.3-29.5,65.8-65.8,65.8S5.4,107,5.4,70.7S34.9,4.9,71.2,4.9S137,34.3,137,70.7z"/>
</svg>
