<?xml version="1.0" encoding="utf-8"?>
<!-- Generator: Adobe Illustrator 19.0.0, SVG Export Plug-In . SVG Version: 6.00 Build 0)  -->
<svg version="1.1" id="Layer_1" xmlns="http://www.w3.org/2000/svg" xmlns:xlink="http://www.w3.org/1999/xlink" x="0px" y="0px"
	 viewBox="0 0 110.8 110.8" style="enable-background:new 0 0 110.8 110.8;" xml:space="preserve">
<style type="text/css">
	.st0{fill:#FFFFFF;}
</style>
<g id="XMLID_3_">
	<path id="XMLID_2_" class="st0" d="M53.8,41.2C53.8,41.2,53.8,41.2,53.8,41.2C53.8,41.2,53.8,41.2,53.8,41.2z"/>
	<path id="XMLID_1_" class="st0" d="M94.5,51.7L68.5,25.7c-2.2-2.2-5.9-2.2-8.1,0c-2.2,2.2-2.2,5.8,0,8.1L76.6,50H21.7
		c-3.2,0-5.7,2.6-5.7,5.7s2.6,5.7,5.7,5.7h54.9L60.4,77.6c-2.2,2.2-2.2,5.9,0,8.1c1.1,1.1,2.6,1.7,4,1.7c1.5,0,2.9-0.6,4-1.7
		l25.9-25.9C96.7,57.5,96.7,53.9,94.5,51.7z"/>
</g>
</svg>
