<?xml version="1.0" encoding="utf-8"?>
<!-- Generator: Adobe Illustrator 19.2.1, SVG Export Plug-In . SVG Version: 6.00 Build 0)  -->
<!DOCTYPE svg PUBLIC "-//W3C//DTD SVG 1.1//EN" "http://www.w3.org/Graphics/SVG/1.1/DTD/svg11.dtd">
<svg version="1.1" id="Layer_1" xmlns="http://www.w3.org/2000/svg" xmlns:xlink="http://www.w3.org/1999/xlink" x="0px" y="0px"
	 viewBox="0 0 143 175.5" enable-background="new 0 0 143 175.5" xml:space="preserve">
<g>
	<circle fill="#FFFFFF" cx="72.4" cy="90" r="50.1"/>
	<linearGradient id="SVGID_1_" gradientUnits="userSpaceOnUse" x1="-13.388" y1="66.9444" x2="169.612" y2="66.9444">
		<stop  offset="0" style="stop-color:#25B34B"/>
		<stop  offset="9.024477e-02" style="stop-color:#45B649"/>
		<stop  offset="0.2937" style="stop-color:#68BD45"/>
		<stop  offset="0.5069" style="stop-color:#7DC242"/>
		<stop  offset="0.7342" style="stop-color:#88C540"/>
		<stop  offset="1" style="stop-color:#8BC63F"/>
	</linearGradient>
	<path fill="url(#SVGID_1_)" d="M131.3,22.5c-30-30-78.7-30-108.8,0c-30,30-30,78.7,0,108.8c0.9,0.9,1.8,1.8,2.7,2.6
		c0,0,18.3-18.3,18.4-18.3l14-14.1c1.7,1.8,3.5,3.2,5.5,4.3c2.5,1.3,5.5,2,8.8,2c2.6,0,4.9-0.4,7-1.1c2.1-0.7,3.1-2.1,3.1-4.1
		c0-1.9-0.9-3.3-2.7-4.2c-1.8-0.9-4.1-1.7-7-2.4c-2.3-0.5-4.7-1.1-7.3-1.7l0,0c-0.6-0.1-1.2-0.3-1.8-0.4c-3.2-0.7-6.2-1.9-9-3.3
		c-2.8-1.5-5.1-3.6-7-6.3c-1.8-2.7-2.7-6.3-2.7-10.9c0-4.2,0.9-7.9,2.6-11c1.7-3.1,4-5.6,6.8-7.6c2.8-2,6.1-3.4,9.7-4.4
		c3.7-0.9,7.4-1.4,11.1-1.4c4.7,0,9.5,0.7,14.4,2.1c4.6,1.3,8.6,3.7,11.8,7c0,0,16.6-16.6,16.7-16.5L134,25.4
		C133.1,24.4,132.2,23.5,131.3,22.5z"/>
	<linearGradient id="SVGID_2_" gradientUnits="userSpaceOnUse" x1="-20.6743" y1="108.5643" x2="174.3642" y2="108.5643">
		<stop  offset="0" style="stop-color:#006025"/>
		<stop  offset="0.9967" style="stop-color:#00A04F"/>
	</linearGradient>
	<path fill="url(#SVGID_2_)" d="M120.5,44.2c-0.9-0.9-1.8-1.8-2.8-2.6l-9.7,9.7l-6.9,6.9L87.5,71.7v0c-3.2-3.8-7.4-5.7-12.6-5.7
		c-1.9,0-3.7,0.4-5.5,1.3c-1.8,0.9-2.7,2.4-2.7,4.6c0,1.8,0.9,3.1,2.7,3.9c1.8,0.8,4.1,1.6,7,2.2c1.2,0.3,2.5,0.6,3.8,0.9l0,0
		c1.7,0.4,3.5,0.8,5.3,1.2c3.2,0.7,6.2,1.9,9,3.5c2.8,1.6,5.1,3.7,7,6.4c1.8,2.7,2.7,6.3,2.7,10.9c0,4.6-1,8.5-3,11.5
		c-2,3-4.6,5.4-7.8,7.3c-3.2,1.8-6.7,3.1-10.7,3.9c-4,0.7-7.9,1.1-11.7,1.1c-5,0-10.1-0.7-15.3-2.1c-4.8-1.3-8.8-3.6-12.2-6.9
		c0,0-18.3,18.3-18.4,18.3L9,150.2c0.9,1,1.8,1.9,2.7,2.8c30,30,78.7,30,108.8,0C150.5,123,150.5,74.3,120.5,44.2z"/>
</g>
</svg>
