<?xml version="1.0" encoding="utf-8"?>
<!-- Generator: Adobe Illustrator 19.2.1, SVG Export Plug-In . SVG Version: 6.00 Build 0)  -->
<!DOCTYPE svg PUBLIC "-//W3C//DTD SVG 1.1//EN" "http://www.w3.org/Graphics/SVG/1.1/DTD/svg11.dtd">
<svg version="1.1" id="Layer_1" xmlns="http://www.w3.org/2000/svg" xmlns:xlink="http://www.w3.org/1999/xlink" x="0px" y="0px"
	 viewBox="0 0 750.6 175.5" enable-background="new 0 0 750.6 175.5" xml:space="preserve">
<g>
	<g>
		<path fill="#1D0A3C" d="M292.5,103.1c-1.9,0-3.4-0.3-4.6-0.8c-1.1-0.5-2-1.2-2.6-2.2c-0.6-1-0.9-2.1-1.1-3.4
			c-0.2-1.3-0.2-2.7-0.2-4.3V75.7h5.8l13.9-13.5h-19.6V46.8h-17.8v15.4H262l-13.1,13.5h17.3v24.9c0,3.2,0.5,5.9,1.6,8.1
			c1.1,2.2,2.6,4,4.4,5.4c1.9,1.4,4.1,2.4,6.6,3c2.5,0.6,5.3,1,8.3,1c2.1,0,4.2-0.1,6.3-0.4c2.1-0.2,4.2-0.7,6.2-1.4v-14.8
			c-0.8,0.7-2,1.2-3.5,1.4C294.7,103,293.4,103.1,292.5,103.1z"/>
		<path fill="#1D0A3C" d="M351.6,65.8c-2.3-2.7-5.2-4.7-8.5-6.1c-3.4-1.4-7.1-2.1-11.2-2.1c-4.4,0-8.6,0.7-12.5,2.1
			c-3.9,1.4-7.3,3.5-10.2,6.1c-2.9,2.7-5.2,5.8-6.8,9.6c-1.7,3.7-2.5,7.9-2.5,12.5c0,4.6,0.8,8.7,2.5,12.5c1.7,3.7,3.9,6.9,6.8,9.6
			c2.9,2.7,6.3,4.7,10.2,6.1c3.9,1.4,8.1,2.1,12.5,2.1c4.7,0,9.2-1,13.5-3c4.3-2,7.9-4.8,10.8-8.4l-12.5-9.1c-1.5,2.1-3.3,3.7-5.3,5
			c-2,1.3-4.5,2-7.4,2c-3.5,0-6.4-1-8.8-3c-2.4-2-3.9-4.7-4.6-8.1h41.3v-5.6c0-4.6-0.6-8.7-1.9-12.5C355.8,71.6,354,68.4,351.6,65.8
			z M317.7,81.2c0.1-1.4,0.4-2.8,1-4.1c0.6-1.3,1.4-2.5,2.5-3.4c1.1-1,2.4-1.8,3.9-2.4c1.5-0.6,3.2-0.9,5.2-0.9c3.2,0,5.9,1.1,8,3.2
			c2.1,2.1,3,4.7,3,7.7H317.7z"/>
		<path fill="#1D0A3C" d="M411,65.2c-2-2.5-4.7-4.4-8.1-5.8c-3.4-1.3-7.7-2-12.9-2c-4.7,0-9.3,0.8-13.8,2.3
			c-4.4,1.5-8.3,3.9-11.6,6.9l9.5,9.7c1.9-2.1,4.1-3.8,6.5-5c2.4-1.2,5.1-1.8,8-1.8c3.1,0,5.8,0.9,8,2.8c2.3,1.9,3.4,4.4,3.4,7.5
			c-2.5,0-5.1,0-8,0.1c-2.9,0.1-5.8,0.3-8.7,0.7c-2.9,0.4-5.7,1-8.4,1.8c-2.7,0.8-5.1,2-7.2,3.5c-2.1,1.5-3.8,3.4-5,5.7
			c-1.2,2.3-1.8,5.1-1.8,8.4c0,2.9,0.6,5.5,1.7,7.7c1.1,2.2,2.6,4.1,4.5,5.6c1.9,1.5,4.1,2.6,6.6,3.4c2.5,0.8,5.1,1.1,7.8,1.1
			c3.6,0,7.1-0.7,10.4-2c3.3-1.3,5.9-3.6,7.9-6.6h0.2v7.2h16.4V87.3c0-4.8-0.4-9.1-1.2-12.8C414.5,70.9,413.1,67.8,411,65.2z
			 M400.1,95.1c0,1.8-0.4,3.4-1.1,4.7c-0.8,1.3-1.8,2.5-3,3.3c-1.3,0.9-2.7,1.5-4.3,2c-1.6,0.5-3.3,0.7-5,0.7c-2,0-3.9-0.5-5.7-1.5
			c-1.8-1-2.7-2.6-2.7-4.7c0-2,0.7-3.5,2-4.6c1.3-1.1,2.9-1.9,4.7-2.5s3.8-0.9,5.8-1c2-0.1,3.7-0.2,5-0.2h4.4V95.1z"/>
		<path fill="#1D0A3C" d="M465,64.9h-0.2c-2.1-2.8-4.7-4.7-7.9-5.9c-3.2-1.1-6.7-1.7-10.4-1.7c-4.1,0-7.8,0.9-11,2.6
			c-3.2,1.7-6,4-8.2,6.8c-2.3,2.8-4,6.1-5.2,9.8c-1.2,3.7-1.8,7.5-1.8,11.6c0,4.4,0.7,8.3,2,12c1.3,3.6,3.3,6.8,5.8,9.4
			c2.5,2.7,5.5,4.7,9,6.2c3.5,1.5,7.4,2.2,11.6,2.2c2,0,3.9-0.3,5.8-0.8s3.6-1.3,5.1-2.1c1.5-0.9,2.9-1.8,4-2.9
			c1.1-1.1,2.1-2.1,2.8-3.1h0.2v7.6h16.4V39.2H465V64.9z M462.7,98.2c-2.5,2.7-6,4-10.5,4c-4.5,0-8-1.3-10.5-4
			c-2.5-2.7-3.7-6.2-3.7-10.6c0-4.4,1.2-7.9,3.7-10.6c2.5-2.7,6-4,10.5-4c4.5,0,8,1.3,10.5,4c2.5,2.7,3.7,6.2,3.7,10.6
			C466.5,92,465.2,95.5,462.7,98.2z"/>
		<path fill="#1D0A3C" d="M518.4,73.2c1.8,0,3.5,0.4,5.1,1.2c1.6,0.8,2.8,1.9,3.7,3.1l11.7-12.3c-2.8-2.8-6-4.8-9.8-6
			c-3.8-1.1-7.3-1.7-10.7-1.7c-4.4,0-8.6,0.7-12.5,2.1c-3.9,1.4-7.3,3.5-10.2,6.1c-2.9,2.7-5.2,5.8-6.8,9.6
			c-1.7,3.7-2.5,7.9-2.5,12.5c0,4.6,0.8,8.7,2.5,12.5c1.7,3.7,3.9,6.9,6.8,9.6c2.9,2.7,6.3,4.7,10.2,6.1c3.9,1.4,8.1,2.1,12.5,2.1
			c3.4,0,7-0.6,10.7-1.7c3.8-1.1,7-3.1,9.8-6L527.2,98c-1,1.2-2.3,2.2-3.7,3.1c-1.4,0.9-3.1,1.3-5.1,1.3c-4.5,0-8-1.3-10.5-4
			c-2.5-2.7-3.7-6.2-3.7-10.6c0-4.4,1.2-7.9,3.7-10.6C510.4,74.5,513.9,73.2,518.4,73.2z"/>
		<path fill="#1D0A3C" d="M578,57.5c-4,0-7.2,0.9-9.8,2.7c-2.6,1.8-4.9,4.5-6.8,8h-0.2v-9.3h-17.8v57.7h17.8V92.5
			c0-2.8,0.2-5.5,0.5-7.8c0.3-2.4,1-4.4,2.1-6.1c1.1-1.7,2.6-3,4.6-4c2-1,4.7-1.4,8.1-1.4c1.3,0,2.6,0.1,3.9,0.3
			c1.2,0.2,2.5,0.5,3.7,0.9V58.1c-0.9-0.2-1.8-0.4-2.8-0.5C580,57.5,579,57.5,578,57.5z"/>
		<path fill="#1D0A3C" d="M692.8,85.2c-2.3-1.3-4.7-2.2-7.2-2.8c-2.6-0.6-5-1.1-7.2-1.7s-4.1-1.1-5.6-1.8c-1.5-0.7-2.2-1.7-2.2-3.1
			c0-1.7,0.7-3,2.1-3.7c1.4-0.7,2.9-1.1,4.4-1.1c4.3,0,7.7,1.6,10.3,4.9l10.9-10.8c-2.7-2.8-6-4.8-9.8-5.9
			c-3.9-1.1-7.7-1.7-11.5-1.7c-3,0-6,0.4-8.9,1.1c-2.9,0.8-5.5,1.9-7.8,3.5c-2.3,1.6-4.1,3.6-5.5,6.1c-1.4,2.5-2.1,5.4-2.1,8.8
			c0,3.6,0.7,6.5,2.2,8.7c1.5,2.2,3.3,3.9,5.6,5c2.3,1.2,4.7,2.1,7.2,2.7c2.6,0.6,5,1.1,7.2,1.7c2.3,0.5,4.1,1.1,5.6,1.9
			c1.5,0.8,2.2,1.9,2.2,3.4c0,1.6-0.8,2.7-2.5,3.3c-1.7,0.6-3.5,0.9-5.6,0.9c-2.7,0-5-0.5-7.1-1.6c-2-1.1-3.9-2.6-5.5-4.7l-10.8,12
			c2.8,2.9,6.3,5,10.4,6.1c4.1,1.1,8.2,1.7,12.2,1.7c3.1,0,6.2-0.3,9.4-0.9c3.2-0.6,6-1.6,8.5-3.1c2.5-1.5,4.6-3.4,6.2-5.8
			c1.6-2.4,2.4-5.5,2.4-9.2c0-3.6-0.7-6.5-2.2-8.7C696.9,88.1,695,86.4,692.8,85.2z"/>
		<path fill="#1D0A3C" d="M748.4,90.3c-1.5-2.2-3.3-3.9-5.6-5.2c-2.3-1.3-4.7-2.2-7.2-2.8c-2.6-0.6-5-1.1-7.2-1.7
			c-2.3-0.5-4.1-1.1-5.6-1.8c-1.5-0.7-2.2-1.7-2.2-3.1c0-1.7,0.7-3,2.1-3.7c1.4-0.7,2.9-1.1,4.4-1.1c4.3,0,7.7,1.6,10.3,4.9
			l10.9-10.8c-2.7-2.8-6-4.8-9.8-5.9c-3.9-1.1-7.7-1.7-11.5-1.7c-3,0-6,0.4-8.9,1.1c-2.9,0.8-5.5,1.9-7.8,3.5
			c-2.3,1.6-4.1,3.6-5.5,6.1c-1.4,2.5-2.1,5.4-2.1,8.8c0,3.6,0.7,6.5,2.2,8.7c1.5,2.2,3.3,3.9,5.6,5c2.3,1.2,4.7,2.1,7.2,2.7
			c2.6,0.6,5,1.1,7.2,1.7c2.3,0.5,4.1,1.1,5.6,1.9c1.5,0.8,2.2,1.9,2.2,3.4c0,1.6-0.8,2.7-2.5,3.3c-1.7,0.6-3.5,0.9-5.6,0.9
			c-2.7,0-5-0.5-7.1-1.6c-2-1.1-3.9-2.6-5.5-4.7l-10.8,12c2.8,2.9,6.3,5,10.4,6.1c4.1,1.1,8.2,1.7,12.2,1.7c3.1,0,6.2-0.3,9.4-0.9
			c3.2-0.6,6-1.6,8.5-3.1c2.5-1.5,4.6-3.4,6.2-5.8c1.6-2.4,2.4-5.5,2.4-9.2C750.6,95.4,749.8,92.5,748.4,90.3z"/>
		<path fill="#1D0A3C" d="M249,85.2c-2.3-1.3-4.7-2.2-7.2-2.8c-2.6-0.6-5-1.1-7.2-1.7c-2.3-0.5-4.1-1.1-5.6-1.8
			c-1.5-0.7-2.2-1.7-2.2-3.1c0-1.7,0.7-3,2.1-3.7c1.4-0.7,2.9-1.1,4.4-1.1c4.1,0,7.5,1.5,10.1,4.6l10.8-10.8
			c-2.6-2.7-5.8-4.5-9.5-5.6c-3.9-1.1-7.7-1.7-11.5-1.7c-3,0-6,0.4-8.9,1.1c-2.9,0.8-5.5,1.9-7.8,3.5c-2.3,1.6-4.1,3.6-5.5,6.1
			c-1.4,2.5-2.1,5.4-2.1,8.8c0,3.6,0.7,6.5,2.2,8.7c1.5,2.2,3.3,3.9,5.6,5c2.3,1.2,4.7,2.1,7.2,2.7c2.6,0.6,5,1.1,7.2,1.7
			c2.3,0.5,4.1,1.1,5.6,1.9c1.5,0.8,2.2,1.9,2.2,3.4c0,1.6-0.8,2.7-2.5,3.3c-1.7,0.6-3.5,0.9-5.6,0.9c-2.7,0-5-0.5-7.1-1.6
			c-1.6-0.8-3-2-4.4-3.4l-11.3,11.3c2.7,2.6,6,4.5,9.8,5.5c4.1,1.1,8.2,1.7,12.2,1.7c3.1,0,6.2-0.3,9.4-0.9c3.2-0.6,6-1.6,8.5-3.1
			c2.5-1.5,4.6-3.4,6.2-5.8c1.6-2.4,2.4-5.5,2.4-9.2c0-3.6-0.7-6.5-2.2-8.7C253.1,88.1,251.2,86.4,249,85.2z"/>
		<path fill="#1D0A3C" d="M640.7,65.8c-2.9-2.7-6.3-4.7-10.2-6.1c-3.9-1.4-8.1-2.1-12.5-2.1c-4.4,0-8.6,0.7-12.5,2.1
			c-3.9,1.4-7.3,3.5-10.2,6.1c-2.9,2.7-5.2,5.8-6.8,9.6c-1.7,3.7-2.5,7.9-2.5,12.5c0,4.6,0.8,8.7,2.5,12.5c1.7,3.7,3.9,6.9,6.8,9.6
			c2.9,2.7,6.3,4.7,10.2,6.1c3.9,1.4,8.1,2.1,12.5,2.1c4.4,0,8.6-0.7,12.5-2.1c3.9-1.4,7.3-3.5,10.2-6.1c2.9-2.6,5.2-5.8,6.8-9.6
			c1.7-3.7,2.5-7.9,2.5-12.5c0-4.6-0.8-8.7-2.5-12.5C645.9,71.6,643.6,68.4,640.7,65.8z M627.4,100.3c-5.8,5.8-15.1,5.8-20.8,0
			c-0.2-0.2-0.4-0.4-0.5-0.5l3.1-3.1c-0.2-0.2-0.4-0.3-0.5-0.5c-5.8-5.8-5.8-15.1,0-20.8c5.8-5.8,15.1-5.8,20.8,0
			c0.2,0.2,0.4,0.4,0.5,0.5l-3.1,3.1c0.2,0.2,0.4,0.3,0.5,0.5C633.1,85.2,633.1,94.5,627.4,100.3z"/>
	</g>
	<g>
		<circle fill="#FFFFFF" cx="72.4" cy="90" r="50.1"/>
		<linearGradient id="SVGID_1_" gradientUnits="userSpaceOnUse" x1="-13.388" y1="66.9444" x2="169.612" y2="66.9444">
			<stop  offset="0" style="stop-color:#25B34B"/>
			<stop  offset="9.024477e-02" style="stop-color:#45B649"/>
			<stop  offset="0.2937" style="stop-color:#68BD45"/>
			<stop  offset="0.5069" style="stop-color:#7DC242"/>
			<stop  offset="0.7342" style="stop-color:#88C540"/>
			<stop  offset="1" style="stop-color:#8BC63F"/>
		</linearGradient>
		<path fill="url(#SVGID_1_)" d="M131.3,22.5c-30-30-78.7-30-108.8,0c-30,30-30,78.7,0,108.8c0.9,0.9,1.8,1.8,2.7,2.6
			c0,0,18.3-18.3,18.4-18.3l14-14.1c1.7,1.8,3.5,3.2,5.5,4.3c2.5,1.3,5.5,2,8.8,2c2.6,0,4.9-0.4,7-1.1c2.1-0.7,3.1-2.1,3.1-4.1
			c0-1.9-0.9-3.3-2.7-4.2c-1.8-0.9-4.1-1.7-7-2.4c-2.3-0.5-4.7-1.1-7.3-1.7l0,0c-0.6-0.1-1.2-0.3-1.8-0.4c-3.2-0.7-6.2-1.9-9-3.3
			c-2.8-1.5-5.1-3.6-7-6.3c-1.8-2.7-2.7-6.3-2.7-10.9c0-4.2,0.9-7.9,2.6-11c1.7-3.1,4-5.6,6.8-7.6c2.8-2,6.1-3.4,9.7-4.4
			c3.7-0.9,7.4-1.4,11.1-1.4c4.7,0,9.5,0.7,14.4,2.1c4.6,1.3,8.6,3.7,11.8,7c0,0,16.6-16.6,16.7-16.5L134,25.4
			C133.1,24.4,132.2,23.5,131.3,22.5z"/>
		<linearGradient id="SVGID_2_" gradientUnits="userSpaceOnUse" x1="-20.6743" y1="108.5643" x2="174.3642" y2="108.5643">
			<stop  offset="0" style="stop-color:#006025"/>
			<stop  offset="0.9967" style="stop-color:#00A04F"/>
		</linearGradient>
		<path fill="url(#SVGID_2_)" d="M120.5,44.2c-0.9-0.9-1.8-1.8-2.8-2.6l-9.7,9.7l-6.9,6.9L87.5,71.7v0c-3.2-3.8-7.4-5.7-12.6-5.7
			c-1.9,0-3.7,0.4-5.5,1.3c-1.8,0.9-2.7,2.4-2.7,4.6c0,1.8,0.9,3.1,2.7,3.9c1.8,0.8,4.1,1.6,7,2.2c1.2,0.3,2.5,0.6,3.8,0.9l0,0
			c1.7,0.4,3.5,0.8,5.3,1.2c3.2,0.7,6.2,1.9,9,3.5c2.8,1.6,5.1,3.7,7,6.4c1.8,2.7,2.7,6.3,2.7,10.9c0,4.6-1,8.5-3,11.5
			c-2,3-4.6,5.4-7.8,7.3c-3.2,1.8-6.7,3.1-10.7,3.9c-4,0.7-7.9,1.1-11.7,1.1c-5,0-10.1-0.7-15.3-2.1c-4.8-1.3-8.8-3.6-12.2-6.9
			c0,0-18.3,18.3-18.4,18.3L9,150.2c0.9,1,1.8,1.9,2.7,2.8c30,30,78.7,30,108.8,0C150.5,123,150.5,74.3,120.5,44.2z"/>
	</g>
</g>
</svg>
